<svg width="106" height="36" viewBox="0 0 106 36" fill="none" xmlns="http://www.w3.org/2000/svg">
<g clip-path="url(#clip0_36_2)">
<path d="M45.3354 7.61562H49.4849L59.0631 20.2074V7.61562H63.5031V28.0651H59.6776L49.774 15.0651V28.0651H45.3354V7.61562Z" fill="#650190"/>
<path d="M73.6073 20.0016L65.7505 7.61562H71.0099L75.8885 15.8255L80.8536 7.61562H85.9631L78.1073 19.9151V28.0651H73.6073V20.0016Z" fill="#650190"/>
<path d="M87.8912 19.3011V7.61563H92.3912V19.185C92.3912 22.514 94.0516 24.2381 96.8 24.2381C99.5438 24.2381 101.211 22.5714 101.211 19.3318V7.61563H105.708V19.1547C105.708 25.3464 102.231 28.3854 96.7391 28.3854C91.2506 28.3854 87.8912 25.3193 87.8912 19.3011Z" fill="#650190"/>
<path d="M3.9198 33.612H30.8193V2.5H3.9198V33.612Z" fill="white"/>
<path d="M15.8636 18.7765C12.174 16.5749 12.5432 13.4307 14.0724 11.1197C14.1052 11.0713 14.1156 10.9907 14.1052 10.8969C14.0412 10.3473 13.4416 8.9568 13.1911 8.57866C13.1271 8.4828 13.0724 8.49066 13.0661 8.5588C13.0458 9.18746 12.3302 10.7631 11.2349 12.5776C10.0708 14.5088 10.0682 18.7 15.8473 18.8636C15.9027 18.8651 15.9183 18.8083 15.8636 18.7765V18.7765ZM16.8505 18.614C14.6448 13.9016 19.0568 10.8579 19.7755 10.1979C19.8771 10.1052 19.8516 10.0197 19.8536 9.914C19.8536 8.43026 19.0036 6.02973 18.7251 5.6864C18.686 5.63333 18.6527 5.65627 18.6364 5.70987C18.2599 7.1724 16.2521 9.35213 15.8473 9.8292C12.4411 13.8792 13.2208 16.3453 16.7771 18.6713C16.8224 18.7 16.8771 18.6672 16.8505 18.614V18.614ZM17.5693 18.4136C18.6115 13.4151 22.6797 13.2932 23.0437 12.3448C23.6115 10.8656 22.5724 8.24067 22.3068 7.93027C22.2812 7.89693 22.2443 7.91826 22.2312 7.94586C21.6797 9.1568 20.7855 10.3099 20.1328 10.8396C19.2093 11.5833 15.6755 14.2027 17.4828 18.4172C17.5036 18.4693 17.5568 18.4563 17.5693 18.4136ZM18.2927 18.8473C24.8797 19.086 25.3459 13.0833 25.3719 10.8369C25.3749 10.7068 25.3093 10.6953 25.2781 10.7864C25.0828 11.2552 24.2265 12.9292 21.8516 13.9469C19.7307 14.8568 18.4552 16.9213 18.2328 18.7765C18.2229 18.8224 18.262 18.8473 18.2927 18.8473V18.8473ZM19.7912 21.0973V19.586H14.5959V21.0973H19.7912V21.0973ZM16.7536 31.7917C16.7959 32.0443 17.3421 32.1682 17.4645 31.7917L18.7229 21.8193H15.6661L16.7536 31.7917ZM35.9979 36H0V-1.87755e-06H35.9979V36Z" fill="#650190"/>
</g>
<defs>
<clipPath id="clip0_36_2">
<rect width="105.707" height="36" fill="white"/>
</clipPath>
</defs>
</svg>
